<svg width="30.829346" height="22.729004" viewBox="0 0 30.8293 22.729" fill="none" xmlns="http://www.w3.org/2000/svg" xmlns:xlink="http://www.w3.org/1999/xlink">
	<desc>
			Created with Pixso.
	</desc>
	<defs/>
	<path id="Vector" d="M11.36 22.72C11.04 22.72 10.72 22.61 10.47 22.36L0.36 12.24C-0.13 11.76 -0.13 10.96 0.36 10.47L10.47 0.36C10.96 -0.13 11.76 -0.13 12.24 0.36C12.72 0.84 12.72 1.64 12.24 2.12L3.01 11.36L12.24 20.59C12.72 21.07 12.72 21.87 12.24 22.36C12.01 22.61 11.67 22.72 11.36 22.72Z" fill="#000000" fill-opacity="1.000000" fill-rule="nonzero"/>
	<path id="Vector" d="M29.57 12.61L1.52 12.61C0.84 12.61 0.27 12.04 0.27 11.36C0.27 10.67 0.84 10.11 1.52 10.11L29.57 10.11C30.26 10.11 30.82 10.67 30.82 11.36C30.82 12.04 30.26 12.61 29.57 12.61Z" fill="#000000" fill-opacity="1.000000" fill-rule="nonzero"/>
</svg>
