<svg width="24.000000" height="24.000000" viewBox="0 0 24 24" fill="none" xmlns="http://www.w3.org/2000/svg" xmlns:xlink="http://www.w3.org/1999/xlink">
	<desc>
			Created with Pixso.
	</desc>
	<defs/>
	<rect id="vuesax/outline/arrow-circle-right" rx="-0.500000" width="23.000000" height="23.000000" transform="translate(0.500000 0.500000)" fill="#FFFFFF" fill-opacity="0"/>
	<path id="Vector" d="M12 22.75C6.07 22.75 1.25 17.93 1.25 12C1.25 6.06 6.07 1.25 12 1.25C17.92 1.25 22.75 6.06 22.75 12C22.75 17.93 17.92 22.75 12 22.75ZM12 2.75C6.89 2.75 2.75 6.89 2.75 12C2.75 17.1 6.89 21.25 12 21.25C17.1 21.25 21.25 17.1 21.25 12C21.25 6.89 17.1 2.75 12 2.75Z" fill="#FFFFFF" fill-opacity="1.000000" fill-rule="nonzero"/>
	<path id="Vector" d="M10.74 16.28C10.55 16.28 10.36 16.2 10.21 16.06C9.92 15.77 9.92 15.29 10.21 15L13.21 12L10.21 9C9.92 8.7 9.92 8.22 10.21 7.93C10.5 7.65 10.98 7.65 11.27 7.93L14.8 11.47C15.09 11.76 15.09 12.24 14.8 12.53L11.27 16.06C11.12 16.2 10.93 16.28 10.74 16.28Z" fill="#FFFFFF" fill-opacity="1.000000" fill-rule="nonzero"/>
	<g opacity="0.000000"/>
</svg>
